<?xml version="1.0" encoding="utf-8"?>
<!-- Generator: Adobe Illustrator 26.0.1, SVG Export Plug-In . SVG Version: 6.00 Build 0)  -->
<svg version="1.1" id="Layer_1" xmlns="http://www.w3.org/2000/svg" xmlns:xlink="http://www.w3.org/1999/xlink" x="0px" y="0px"
	 viewBox="0 0 100 100" style="enable-background:new 0 0 100 100;" xml:space="preserve">
<style type="text/css">
	.st0{fill:#FF0000;}
</style>
<g>
	<polygon class="st0" points="50,71.51 41.26,91.61 41.45,69.69 25.29,84.5 34.38,64.55 13.59,71.51 30.01,56.98 8.19,54.88 
		29.09,48.29 10.01,37.49 31.79,39.98 18.76,22.35 37.64,33.48 32.9,12.08 45.63,29.92 50,8.44 54.37,29.92 67.1,12.08 62.36,33.48 
		81.25,22.35 68.21,39.98 89.99,37.49 70.91,48.29 91.81,54.88 69.99,56.98 86.41,71.51 65.62,64.55 74.71,84.5 58.55,69.69 
		58.74,91.61 	"/>
	<path d="M50,10.95l3.65,17.95l0.46,2.25l1.34-1.87l10.64-14.91l-3.96,17.88l-0.5,2.25l1.98-1.17l15.78-9.29L68.49,38.75l-1.37,1.85
		l2.28-0.26l18.2-2.07l-15.94,9.02l-2,1.13l2.19,0.69l17.47,5.51l-18.23,1.76L68.8,56.6l1.72,1.52l13.72,12.14l-17.37-5.81
		l-2.18-0.73l0.95,2.09l7.59,16.67L59.74,70.1l-1.7-1.55l0.02,2.3l0.16,18.31l-7.3-16.79L50,70.25l-0.92,2.11l-7.3,16.79l0.16-18.31
		l0.02-2.3l-1.7,1.55l-13.5,12.37l7.59-16.67l0.95-2.09l-2.18,0.73l-17.37,5.81l13.72-12.14l1.72-1.52l-2.29-0.22l-18.23-1.76
		l17.47-5.51l2.19-0.69l-2-1.13L12.4,38.27l18.2,2.07l2.28,0.26l-1.37-1.85L20.62,24.03l15.78,9.29l1.98,1.17l-0.5-2.25l-3.96-17.88
		l10.64,14.91l1.34,1.87l0.46-2.25L50,10.95 M50,5.94L45.37,28.7L31.88,9.79l5.03,22.68L16.89,20.68l13.82,18.67L7.63,36.72
		l20.22,11.44L5.69,55.14l23.12,2.23l-17.4,15.39l22.03-7.37l-9.63,21.14l17.13-15.69l-0.2,23.23L50,72.76l9.26,21.3l-0.2-23.23
		l17.13,15.69l-9.63-21.14l22.03,7.37l-17.4-15.39l23.12-2.23l-22.15-6.99l20.22-11.44l-23.08,2.63l13.82-18.67L63.09,32.47
		l5.03-22.68L54.63,28.7L50,5.94L50,5.94z"/>
</g>
</svg>
