<?xml version="1.0" encoding="utf-8"?>
<!-- Generator: Adobe Illustrator 26.0.1, SVG Export Plug-In . SVG Version: 6.00 Build 0)  -->
<svg version="1.1" id="Layer_1" xmlns="http://www.w3.org/2000/svg" xmlns:xlink="http://www.w3.org/1999/xlink" x="0px" y="0px"
	 viewBox="0 0 100 100" style="enable-background:new 0 0 100 100;" xml:space="preserve">
<style type="text/css">
	.st0{fill:#0000FF;}
</style>
<g>
	<polygon class="st0" points="27.88,61.75 5.74,40.19 36.32,35.73 49.98,8 63.67,35.71 94.26,40.13 72.15,61.72 77.39,92.18 
		50.03,77.81 22.68,92.21 	"/>
	<path d="M49.98,9.13l13.13,26.56l0.23,0.47l0.52,0.08l29.33,4.24l-21.2,20.7l-0.38,0.37l0.09,0.52l5.03,29.2L50.49,77.49
		l-0.47-0.24l-0.47,0.24L23.34,91.3l4.99-29.21l0.09-0.52l-0.38-0.37L6.81,40.54l29.32-4.28l0.52-0.08l0.23-0.47L49.98,9.13
		 M49.98,6.87l-13.99,28.4L4.66,39.84l22.68,22.08l-5.33,31.21l28.01-14.75l28.03,14.71l-5.37-31.2l22.65-22.11l-31.33-4.53
		L49.98,6.87L49.98,6.87z"/>
</g>
</svg>
